<?xml version="1.0" encoding="UTF-8" standalone="no"?>
<!-- Uploaded to: SVG Repo, www.svgrepo.com, Generator: SVG Repo Mixer Tools -->

<svg
   fill="#000000"
   height="400"
   width="400"
   version="1.1"
   id="Capa_1"
   viewBox="0 0 256 256"
   xml:space="preserve"
   sodipodi:docname="checkmark.svg"
   inkscape:version="1.2.2 (b0a8486541, 2022-12-01)"
   xmlns:inkscape="http://www.inkscape.org/namespaces/inkscape"
   xmlns:sodipodi="http://sodipodi.sourceforge.net/DTD/sodipodi-0.dtd"
   xmlns="http://www.w3.org/2000/svg"
   xmlns:svg="http://www.w3.org/2000/svg"><defs
   id="defs54" /><sodipodi:namedview
   id="namedview52"
   pagecolor="#ffffff"
   bordercolor="#000000"
   borderopacity="0.25"
   inkscape:showpageshadow="2"
   inkscape:pageopacity="0.0"
   inkscape:pagecheckerboard="0"
   inkscape:deskcolor="#d1d1d1"
   showgrid="false"
   inkscape:zoom="1.539725"
   inkscape:cx="214.64872"
   inkscape:cy="218.54552"
   inkscape:window-width="1870"
   inkscape:window-height="972"
   inkscape:window-x="20"
   inkscape:window-y="78"
   inkscape:window-maximized="1"
   inkscape:current-layer="g49" />
<g
   id="g49"
   transform="matrix(0.46903665,0,0,0.46903665,9.1891916,8.4035541)">
	<path
   d="m 474.045,173.813 c -4.201,1.371 -6.494,5.888 -5.123,10.088 7.571,23.199 11.411,47.457 11.411,72.1 0,62.014 -24.149,120.315 -68,164.166 -43.851,43.851 -102.153,68 -164.167,68 -62.014,0 -120.316,-24.149 -164.167,-68 C 40.148,376.316 16,318.014 16,256 16,193.986 40.149,135.684 84,91.833 c 43.851,-43.851 102.153,-68 164.167,-68 32.889,0 64.668,6.734 94.455,20.017 28.781,12.834 54.287,31.108 75.81,54.315 3.004,3.239 8.066,3.431 11.306,0.425 3.24,-3.004 3.43,-8.065 0.426,-11.306 -23,-24.799 -50.26,-44.328 -81.024,-58.047 C 317.287,15.035 283.316,7.833 248.167,7.833 181.879,7.833 119.559,33.646 72.687,80.52 25.814,127.392 0,189.712 0,256 c 0,66.287 25.814,128.607 72.687,175.479 46.872,46.873 109.192,72.687 175.48,72.687 66.288,0 128.608,-25.813 175.48,-72.687 46.873,-46.872 72.687,-109.192 72.687,-175.479 0,-26.332 -4.105,-52.26 -12.201,-77.064 -1.371,-4.2 -5.888,-6.491 -10.088,-5.123 z"
   id="path45"
   style="fill-opacity:1;fill:#000000;stroke-width:6.82249457;stroke-dasharray:none;paint-order:stroke fill markers;stroke:#000000;stroke-opacity:1" />
	<path
   d="m 504.969,83.262 c -4.532,-4.538 -10.563,-7.037 -16.98,-7.037 -6.417,0 -12.448,2.499 -16.978,7.034 l -7.161,7.161 c -3.124,3.124 -3.124,8.189 0,11.313 3.124,3.123 8.19,3.124 11.314,-0.001 l 7.164,-7.164 c 1.51,-1.512 3.52,-2.344 5.66,-2.344 2.14,0 4.15,0.832 5.664,2.348 1.514,1.514 2.348,3.524 2.348,5.663 0,2.139 -0.834,4.149 -2.348,5.663 L 217.802,381.75 c -1.51,1.512 -3.52,2.344 -5.66,2.344 -2.14,0 -4.15,-0.832 -5.664,-2.348 L 98.747,274.015 c -1.514,-1.514 -2.348,-3.524 -2.348,-5.663 0,-2.138 0.834,-4.149 2.351,-5.667 1.51,-1.512 3.52,-2.344 5.66,-2.344 2.14,0 4.15,0.832 5.664,2.348 l 96.411,96.411 c 1.5,1.5 3.535,2.343 5.657,2.343 2.122,0 4.15821,-0.84179 5.657,-2.343 L 474.79561,101.68986 c 3.12249,-3.127508 3.125,-8.188996 0,-11.313996 -3.124,-3.123 -8.189,-3.123 -11.313,0 L 212.142,342.129 121.392,251.378 c -4.533,-4.538 -10.563,-7.037 -16.98,-7.037 -6.417,0 -12.448,2.499 -16.978,7.034 -4.536,4.536 -7.034,10.565 -7.034,16.977 0,6.412 2.498,12.441 7.034,16.978 l 107.728,107.728 c 4.532,4.538 10.563,7.037 16.98,7.037 6.417,0 12.448,-2.499 16.977,-7.033 L 504.966,117.214 c 4.536,-4.536 7.034,-10.565 7.034,-16.978 0,-6.413 -2.498,-12.442 -7.031,-16.974 z"
   id="path47"
   style="display:inline;stroke:#000000;stroke-opacity:1;fill:#000000;fill-opacity:1;stroke-width:1.36449891;stroke-dasharray:none"
   sodipodi:nodetypes="cscscccscsccscsscscssssccccscsccsccsc" />
<path
   style="fill:#000000;fill-opacity:1;stroke:#000000;stroke-width:0.459242;stroke-dasharray:none;stroke-opacity:1;paint-order:stroke fill markers"
   d="m 167.3938,293.04174 c -0.75775,-0.47842 -19.40873,-18.92475 -41.44661,-40.99182 L 85.878301,211.92795 v -1.99153 c 0,-1.65255 0.265767,-2.2573 1.561424,-3.55295 1.29484,-1.29485 1.900862,-1.56143 3.549577,-1.56143 h 1.988155 l 36.519313,36.48576 c 20.37014,20.35142 37.091,36.69945 37.81212,36.969 1.67389,0.62569 3.78729,0.61557 5.05196,-0.0242 0.5517,-0.2791 45.1269,-44.60746 99.05599,-98.50747 74.29517,-74.2551 98.32993,-98.017635 99.19632,-98.072769 3.01386,-0.19179 4.52183,0.437458 5.65811,2.36101 0.94093,1.592874 0.97835,3.32944 0.10703,4.967626 -0.7995,1.503158 -203.05349,203.688633 -204.4767,204.407423 -1.46489,0.73986 -2.94606,0.61937 -4.5078,-0.36667 z"
   id="path1872"
   transform="matrix(1.3644989,0,0,1.3644989,-19.591628,-17.916626)" /><path
   style="fill:#000000;fill-opacity:1;stroke:#000000;stroke-width:0.459242;stroke-dasharray:none;stroke-opacity:1;paint-order:stroke fill markers"
   d="m 126.85787,252.44465 -41.055343,-41.01115 0.338577,-1.80478 c 0.431202,-2.2985 2.24016,-4.11169 4.530815,-4.54142 l 1.791713,-0.33613 27.820998,27.7286 c 15.30155,15.25072 32.10429,31.90272 37.33943,37.00443 l 9.51844,9.27585 h 2.64222 2.64221 l 26.64532,-26.51887 c 14.65492,-14.58537 55.26759,-55.04872 90.25037,-89.91854 76.17097,-75.92503 80.91868,-80.577519 82.22656,-80.577519 1.60297,0 3.944,1.334808 4.50659,2.569572 0.28758,0.631171 0.52288,1.909668 0.52288,2.841104 0,1.640782 -3.18736,4.879383 -102.35117,103.996763 L 171.87632,293.4558 h -1.98156 -1.98156 z"
   id="path1874"
   transform="matrix(1.3644989,0,0,1.3644989,-19.591628,-17.916626)" /><path
   style="fill:#000000;fill-opacity:1;stroke:#000000;stroke-width:0.459242;stroke-dasharray:none;stroke-opacity:1;paint-order:stroke fill markers"
   d="m 166.01607,306.16065 c -5.13188,-1.30014 -5.26317,-1.42126 -48.77804,-44.99664 -39.855072,-39.91049 -41.867865,-42.00516 -42.886662,-44.63129 -0.831004,-2.14206 -1.071387,-3.67554 -1.079836,-6.88863 -0.0097,-3.67094 0.14677,-4.46717 1.398667,-7.11957 1.805241,-3.82477 5.078706,-7.10035 8.910575,-8.91634 2.696344,-1.27784 3.410117,-1.41375 7.349192,-1.39932 7.741821,0.0283 4.718747,-2.49166 43.864644,36.56516 18.94759,18.90448 34.65252,34.37179 34.89983,34.37179 0.24731,0 43.53922,-43.06311 96.20424,-95.69581 108.55411,-108.487467 97.60009,-98.334041 106.08754,-98.334041 4.40173,0 5.06135,0.117311 7.56748,1.345843 3.65795,1.793161 6.83964,5.060212 8.64464,8.876544 1.3119,2.773763 1.46319,3.525393 1.45507,7.228818 -0.008,3.548645 -0.19651,4.555345 -1.33445,7.118255 -1.2671,2.853824 -5.8099,7.474861 -103.31815,105.097391 -56.09602,56.16178 -102.97397,102.90337 -104.17321,103.87021 -4.00641,3.22999 -10.15756,4.68669 -14.81153,3.50763 z m 6.02748,-12.26741 c 1.2344,-0.46931 200.57837,-199.37487 203.8193,-203.371042 1.30515,-1.609285 1.63428,-2.411462 1.63428,-3.983134 0,-3.739497 -3.66343,-6.384942 -7.23307,-5.223162 -1.36792,0.445205 -13.08975,11.906194 -56.98687,55.718738 -30.39559,30.33703 -73.38067,73.44716 -95.52239,95.80027 -30.46746,30.75834 -18.31205,18.80491 49.98343,-49.15291 C 371.38444,80.548238 370.16279,81.745121 371.78441,81.745121 c 2.80208,0 4.76921,2.06628 4.78402,5.025153 l 0.0102,2.040079 L 274.2956,191.13307 172.01255,293.4558 h -2.08072 -2.08071 l -41.04743,-41.04935 -41.04743,-41.04935 0.324414,-1.72928 c 0.414608,-2.21005 2.392666,-4.18866 4.601811,-4.6031 l 1.727686,-0.32412 13.611219,13.49802 c 38.0674,37.75081 55.68962,55.16213 58.42634,57.72711 2.8737,2.69338 3.13849,2.83432 5.32492,2.83432 1.73257,0 2.51022,-0.23137 3.14859,-0.93676 0.84468,-0.93337 0.84287,-0.93421 -0.50287,-0.23245 -1.58772,0.82794 -2.87085,0.89107 -4.65024,0.22878 -0.72385,-0.26942 -17.36374,-16.53948 -37.80932,-36.969 L 93.442309,204.3628 h -2.450201 c -2.174181,0 -2.6261,0.1759 -4.011626,1.56143 -1.274033,1.27403 -1.561423,1.91217 -1.561423,3.46712 0,1.04813 0.29671,2.46375 0.659356,3.14581 0.742638,1.39674 79.885565,80.53536 81.315385,81.31096 1.17692,0.63842 3.04167,0.65651 4.64975,0.0451 z"
   id="path1876"
   transform="matrix(1.3644989,0,0,1.3644989,-19.591628,-17.916626)" /><path
   style="fill:#000000;fill-opacity:1;stroke:#000000;stroke-width:0.459242;stroke-dasharray:none;stroke-opacity:1;paint-order:stroke fill markers"
   d="m 166.35227,306.28681 c -5.05762,-0.99703 -4.97361,-0.91982 -49.07865,-45.10543 -47.396321,-47.48292 -43.970021,-43.48802 -44.004978,-51.30767 -0.01775,-3.96992 0.111777,-4.63992 1.438314,-7.44005 1.854713,-3.91505 4.867915,-6.92825 8.782958,-8.78296 2.792008,-1.32269 3.485947,-1.45782 7.486354,-1.45782 7.514896,0 6.716169,-0.62182 33.619132,26.17316 12.67804,12.62716 28.06267,27.91855 34.18807,33.98088 l 11.13709,11.02241 95.86636,-95.80641 C 374.4637,58.954099 363.50163,69.115959 371.98622,69.115959 c 4.33527,0 5.08264,0.127975 7.40352,1.267741 3.95714,1.943329 6.57959,4.519775 8.43956,8.291533 2.9066,5.894154 2.57887,12.260535 -0.89873,17.458124 -2.41571,3.610504 -206.22566,207.115723 -208.61576,208.303843 -2.41204,1.19903 -6.75601,2.353 -8.60647,2.2863 -0.76783,-0.0277 -2.27806,-0.22418 -3.35607,-0.43669 z m 4.94509,-12.38646 c 0.50547,-0.33744 0.16728,-0.43381 -1.27035,-0.36198 -1.78039,0.0889 -2.1746,-0.10946 -4.31899,-2.17375 -2.87033,-2.76312 -13.95582,-13.75522 -51.38419,-50.9513 -15.757961,-15.66016 -26.693046,-26.38845 -24.300191,-23.84063 8.594395,9.15096 76.704221,76.9219 77.714771,77.3281 1.3876,0.55776 2.72304,0.55759 3.55895,-4.4e-4 z M 376.57758,89.323006 c -9.2e-4,-0.441714 -194.35602,193.964614 -200.8975,200.950564 -1.75713,1.87652 42.72623,-42.46628 98.85189,-98.53954 C 330.65764,135.66076 376.57816,89.575802 376.57758,89.323006 Z M 171.98622,278.2888 c 0.6133,-0.27156 0.23182,-0.31589 -1.1481,-0.13343 -1.13663,0.15028 -2.1527,0.34782 -2.25795,0.43896 -0.39891,0.34547 2.52896,0.0828 3.40605,-0.30553 z m -3.90356,-0.16848 c 0,-0.0993 -0.32072,-0.30356 -0.71271,-0.45399 -0.40869,-0.15682 -0.59303,-0.0798 -0.43214,0.18049 0.26969,0.43638 1.14485,0.64544 1.14485,0.2735 z m -38.11823,-37.27576 c -19.322,-19.33802 -35.544223,-35.36412 -36.04939,-35.61357 -0.505166,-0.24944 15.16753,15.57257 34.82823,35.16004 19.66068,19.58746 35.88291,35.61356 36.04939,35.61356 0.16647,0 -15.50623,-15.82201 -34.82823,-35.16003 z M 365.662,86.422468 c 4.37238,-4.150652 5.11327,-4.677347 6.57952,-4.677347 2.51482,0 4.33713,2.022598 4.33713,4.81382 0,1.302403 0.1783,2.01882 0.45924,1.845192 0.68213,-0.421579 0.55596,-2.843654 -0.227,-4.357729 -1.01365,-1.960191 -2.44518,-2.760526 -4.93763,-2.760526 -2.12811,0 -2.34419,0.130882 -6.21239,3.762908 -6.86489,6.445744 -82.5306,82.031014 -107.71073,107.596224 -14.96274,15.19156 -0.15774,0.68822 39.40922,-38.60624 34.85648,-34.61642 65.59267,-65.04376 68.30264,-67.616302 z M 87.597522,206.57691 c 0.629965,-0.67661 1.895801,-1.43022 2.81297,-1.67469 1.537772,-0.40989 1.567497,-0.44819 0.381857,-0.49196 -2.744345,-0.1013 -5.427509,2.46078 -5.337035,5.09621 0.03164,0.92174 0.09736,0.88082 0.516538,-0.32162 0.264154,-0.75775 0.995706,-1.93133 1.62567,-2.60794 z"
   id="path1878"
   transform="matrix(1.3644989,0,0,1.3644989,-19.591628,-17.916626)" /><path
   style="fill:#000000;fill-opacity:1;stroke:#000000;stroke-width:0.459242;stroke-dasharray:none;stroke-opacity:1;paint-order:stroke fill markers"
   d="m 165.34232,306.03864 c -1.3809,-0.37111 -3.44749,-1.28003 -4.59242,-2.01982 -1.14494,-0.73978 -20.71343,-20.00349 -43.48554,-42.80823 -33.416979,-33.46487 -41.655702,-41.95041 -42.709526,-43.98901 -1.197383,-2.3163 -1.30396,-2.92583 -1.284777,-7.34787 0.01893,-4.36356 0.14714,-5.0795 1.348425,-7.52973 1.737756,-3.54447 5.297959,-7.12846 8.733986,-8.79234 2.497702,-1.2095 3.206519,-1.33546 7.577498,-1.34654 7.987284,-0.0202 5.420939,-2.14341 44.882974,37.13227 l 34.09078,33.9298 95.28805,-95.19818 c 52.40842,-52.359 95.86206,-95.588574 96.56364,-96.065722 0.70157,-0.477147 2.29931,-1.398464 3.55053,-2.047371 2.12263,-1.100843 2.59919,-1.165899 7.11825,-0.971724 4.09009,0.175743 5.21564,0.398449 7.23739,1.432009 4.62824,2.366058 7.62294,5.842123 9.28588,10.778481 1.75795,5.218405 0.83066,11.199758 -2.41371,15.569253 -0.89957,1.211534 -47.78417,48.308844 -104.188,104.660694 -72.65336,72.58641 -103.0822,102.69797 -104.36957,103.28132 -4.59231,2.08095 -8.36773,2.4792 -12.63386,1.33271 z m 4.91218,-11.94182 c -0.15261,-0.1526 -0.5487,-0.16891 -0.88022,-0.0362 -0.36635,0.1466 -0.25753,0.25542 0.27746,0.27745 0.48412,0.0199 0.75536,-0.0886 0.60276,-0.2412 z m -1.71259,-0.36227 c 0,-0.0993 -0.32073,-0.30356 -0.71272,-0.45398 -0.40869,-0.15683 -0.59303,-0.0798 -0.43214,0.18049 0.2697,0.43637 1.14486,0.64544 1.14486,0.27349 z m -1.83697,-0.85418 c 0,-0.0639 -12.96786,-13.03176 -28.81745,-28.81745 l -28.81746,-28.70127 28.70127,28.81745 c 26.6798,26.78782 28.93364,29.02355 28.93364,28.70127 z m -32.6062,-47.76803 c 0,-0.0676 -2.22159,-2.28924 -4.93686,-4.93685 l -4.93685,-4.81384 4.81384,4.93686 c 4.47119,4.58545 5.05987,5.1455 5.05987,4.81383 z m -13.77727,-13.36839 c 0,-0.0954 -0.36165,-0.45702 -0.80367,-0.80368 -0.72839,-0.57124 -0.74463,-0.55499 -0.1734,0.17339 0.59994,0.76499 0.97707,1.00826 0.97707,0.63029 z m -18.82893,-18.78113 c 0,-0.0691 -1.704939,-1.77401 -3.788751,-3.78875 l -3.788749,-3.66316 3.663164,3.78875 c 3.402236,3.51887 3.914336,3.99811 3.914336,3.66316 z m -12.388615,-7.60777 c 1.319306,-0.90591 1.397127,-1.03922 0.448314,-0.768 -1.474491,0.42149 -3.487439,2.43444 -3.908929,3.90893 -0.271223,0.94881 -0.13791,0.871 0.768002,-0.44831 0.602907,-0.87803 1.814582,-2.08971 2.692613,-2.69262 z M 351.13352,100.47774 c 9.62172,-9.504461 18.19807,-17.710045 19.05856,-18.234633 1.01155,-0.616684 1.2815,-0.954402 0.76376,-0.955512 -1.42458,-0.0031 -7.19586,5.615041 -53.61944,52.196295 -32.14707,32.25625 -36.50407,36.72191 -14.69576,15.06224 17.04937,-16.93316 38.87117,-38.56393 48.49288,-48.06839 z m 14.19369,0.55556 c 5.8053,-5.809419 10.45175,-10.562577 10.32546,-10.562577 -0.12629,0 -4.97941,4.753158 -10.7847,10.562577 -5.8053,5.80941 -10.45175,10.56257 -10.32546,10.56257 0.12629,0 4.97941,-4.75316 10.7847,-10.56257 z m 12.16992,-14.28192 c 0,-1.683256 -1.4523,-4.102751 -2.91746,-4.860413 -1.39549,-0.721639 -1.39129,-0.708999 0.29155,0.87813 1.36141,1.283974 1.70743,1.94832 1.70743,3.27824 0,0.917363 0.20665,1.667933 0.45924,1.667933 0.25258,0 0.45924,-0.433751 0.45924,-0.96389 z"
   id="path1880"
   transform="matrix(1.3644989,0,0,1.3644989,-19.591628,-17.916626)" /><path
   style="fill:#000000;fill-opacity:1;stroke:#000000;stroke-width:0.459242;stroke-dasharray:none;stroke-opacity:1;paint-order:stroke fill markers"
   d="m 165.66451,306.27414 c -0.95111,-0.22407 -2.57522,-0.83897 -3.60913,-1.36643 -2.36558,-1.20683 -29.82394,-28.10499 -62.189937,-60.92115 -18.533329,-18.79109 -24.629463,-25.24759 -25.487945,-26.9946 -0.980884,-1.9961 -1.128359,-2.92644 -1.128359,-7.11825 0,-4.40593 0.116578,-5.05983 1.350918,-7.5775 1.721427,-3.51118 5.237182,-7.03031 8.726695,-8.73508 2.271077,-1.10952 3.452525,-1.3652 7.031441,-1.52173 4.218126,-0.18449 4.370311,-0.15436 7.832835,1.55058 3.401712,1.67501 4.771162,2.97486 37.366222,35.46727 18.60931,18.5507 34.03621,33.65455 34.282,33.56412 0.24579,-0.0904 43.19451,-42.76999 95.4416,-94.84345 52.24708,-52.07346 95.51134,-95.082295 96.1428,-95.575186 0.63146,-0.492892 2.26889,-1.462354 3.63874,-2.15436 2.34448,-1.184362 2.77566,-1.247253 7.34787,-1.071752 4.20074,0.161242 5.19137,0.359178 7.32925,1.464443 3.59369,1.857903 6.5862,4.874727 8.37294,8.440972 1.44948,2.893105 1.54964,3.389094 1.55204,7.685127 0.005,8.223445 10.8151,-3.359098 -105.56558,113.104526 -56.61031,56.65066 -103.85985,103.60362 -104.99897,104.33992 -3.65835,2.36464 -9.10725,3.28224 -13.43543,2.26253 z m -77.36155,-100.7048 1.019658,-0.86005 -1.114443,0.66409 c -0.612943,0.36525 -1.410541,1.1656 -1.772439,1.77854 -0.627637,1.06302 -0.623263,1.07206 0.09478,0.19596 0.41403,-0.50517 1.211628,-1.30551 1.77244,-1.77854 z M 361.41189,90.237199 c 4.9189,-4.785755 8.24772,-8.205965 7.39738,-7.600466 -0.85035,0.605498 -9.22949,8.763955 -18.62033,18.129907 -9.39083,9.36595 -12.71965,12.78616 -7.39738,7.60046 5.32228,-5.18569 13.70142,-13.344146 18.62033,-18.129901 z m 15.82282,-4.555716 c -0.16892,-0.673026 -0.3957,-1.135115 -0.50395,-1.026865 -0.10825,0.10825 -0.0586,0.747475 0.11031,1.420501 0.16892,0.673025 0.39569,1.135114 0.50394,1.026865 0.10825,-0.10825 0.0586,-0.747476 -0.1103,-1.420501 z"
   id="path1882"
   transform="matrix(1.3644989,0,0,1.3644989,-19.591628,-17.916626)" /></g>
</svg>
