<?xml version="1.0" encoding="iso-8859-1"?>
<!-- Uploaded to: SVG Repo, www.svgrepo.com, Generator: SVG Repo Mixer Tools -->
<svg fill="#000000" height="800px" width="800px" version="1.1" id="Layer_1" xmlns="http://www.w3.org/2000/svg" xmlns:xlink="http://www.w3.org/1999/xlink" 
	 viewBox="0 0 511.934 511.934" xml:space="preserve">
<g>
	<g>
		<g>
			<path d="M508.907,493.893l-67.733-67.733c31.573-39.893,24.853-97.813-15.04-129.387c-39.893-31.573-97.813-24.853-129.387,15.04
				c-31.573,39.893-24.853,97.813,15.04,129.387c33.493,26.453,80.747,26.453,114.24,0l67.733,67.733
				c4.267,4.053,10.987,3.947,15.04-0.213C512.96,504.56,512.96,498.053,508.907,493.893z M369.28,439.813
				c-38.933-0.107-70.507-31.573-70.507-70.507s31.573-70.507,70.507-70.507s70.507,31.573,70.507,70.507
				S408.213,439.813,369.28,439.813z"/>
			<path d="M202.667,384.026h-105.6c4.373-5.653,7.573-12.16,9.28-19.093c0.213-0.853,0.32-1.707,0.32-2.56V128.026h320v74.347
				c0,5.333,3.84,10.133,9.067,10.88c6.613,0.96,12.267-4.16,12.267-10.56v-85.333c0-5.867-4.8-10.667-10.667-10.667h-32V64.026
				c0-5.867-4.8-10.667-10.667-10.667H168.533l-30.72-48.427c-1.92-3.093-5.333-4.907-8.96-4.907H10.667C4.8,0.026,0,4.826,0,10.693
				v351.68c0,0.853,0.107,1.707,0.32,2.56c5.76,23.147,25.92,38.827,50.453,39.893c0.853,0.32,1.707,0.427,2.56,0.533h149.013
				c5.333,0,10.133-3.84,10.88-9.067C214.187,389.679,209.067,384.026,202.667,384.026z M85.333,117.359v243.627
				c-4.8,16.747-20.16,22.72-32,22.72c-11.84,0-27.2-5.973-32-22.72V21.359H122.88l30.72,48.427c1.92,3.093,5.333,4.907,9.067,4.907
				H384v32H96C90.133,106.693,85.333,111.493,85.333,117.359z"/>
		</g>
	</g>
</g>
</svg>